<svg width="105" height="28" viewBox="0 0 105 28" fill="none" xmlns="http://www.w3.org/2000/svg">
<path d="M0.981534 27V0.818181H7.30966V21.8608H18.2017V27H0.981534ZM46.1697 13.9091C46.1697 16.7898 45.6158 19.2315 44.5078 21.2344C43.3999 23.2372 41.8999 24.7585 40.0078 25.7983C38.1243 26.8381 36.0107 27.358 33.6669 27.358C31.3146 27.358 29.1967 26.8338 27.3132 25.7855C25.4297 24.7372 23.9339 23.2159 22.826 21.2216C21.7266 19.2187 21.1768 16.7812 21.1768 13.9091C21.1768 11.0284 21.7266 8.58665 22.826 6.58381C23.9339 4.58097 25.4297 3.05966 27.3132 2.01989C29.1967 0.980113 31.3146 0.460226 33.6669 0.460226C36.0107 0.460226 38.1243 0.980113 40.0078 2.01989C41.8999 3.05966 43.3999 4.58097 44.5078 6.58381C45.6158 8.58665 46.1697 11.0284 46.1697 13.9091ZM39.701 13.9091C39.701 12.2045 39.4581 10.7642 38.9723 9.58807C38.495 8.41193 37.8047 7.52131 36.9013 6.91619C36.0064 6.31108 34.9283 6.00852 33.6669 6.00852C32.4141 6.00852 31.3359 6.31108 30.4325 6.91619C29.5291 7.52131 28.8345 8.41193 28.3487 9.58807C27.8714 10.7642 27.6328 12.2045 27.6328 13.9091C27.6328 15.6136 27.8714 17.054 28.3487 18.2301C28.8345 19.4062 29.5291 20.2969 30.4325 20.902C31.3359 21.5071 32.4141 21.8097 33.6669 21.8097C34.9283 21.8097 36.0064 21.5071 36.9013 20.902C37.8047 20.2969 38.495 19.4062 38.9723 18.2301C39.4581 17.054 39.701 15.6136 39.701 13.9091ZM68.0462 9.37074C67.9013 8.83381 67.6882 8.3608 67.407 7.9517C67.1257 7.53409 66.7805 7.1804 66.3714 6.89062C65.9624 6.60085 65.4936 6.38352 64.9652 6.23864C64.4368 6.08523 63.8572 6.00852 63.2266 6.00852C61.9567 6.00852 60.8572 6.31534 59.9283 6.92898C59.0078 7.54261 58.2962 8.4375 57.7933 9.61364C57.2905 10.7812 57.0391 12.2003 57.0391 13.8707C57.0391 15.5497 57.282 16.9815 57.7678 18.1662C58.2536 19.3509 58.9567 20.2543 59.8771 20.8764C60.7976 21.4986 61.9141 21.8097 63.2266 21.8097C64.3857 21.8097 65.3658 21.6222 66.1669 21.2472C66.9766 20.8636 67.5902 20.3224 68.0078 19.6236C68.4254 18.9247 68.6342 18.1023 68.6342 17.1562L69.8104 17.2969H63.4439V12.6818H74.7322V16.1463C74.7322 18.4901 74.2337 20.4972 73.2365 22.1676C72.2479 23.8381 70.8842 25.1207 69.1456 26.0156C67.4155 26.9105 65.4254 27.358 63.1754 27.358C60.6783 27.358 58.4837 26.8168 56.5916 25.7344C54.6996 24.652 53.2251 23.1094 52.1683 21.1065C51.1115 19.0952 50.5831 16.7088 50.5831 13.9474C50.5831 11.7997 50.9027 9.89489 51.5419 8.23295C52.1811 6.5625 53.0717 5.14773 54.2138 3.98864C55.3643 2.82955 56.6939 1.9517 58.2024 1.35511C59.7195 0.758522 61.3516 0.460226 63.0987 0.460226C64.6158 0.460226 66.0263 0.677556 67.3303 1.11222C68.6428 1.54688 69.8018 2.16051 70.8075 2.95312C71.8217 3.74574 72.6442 4.6875 73.2749 5.77841C73.9055 6.86932 74.2976 8.06676 74.451 9.37074H68.0462ZM104.174 13.9091C104.174 16.7898 103.62 19.2315 102.512 21.2344C101.404 23.2372 99.9038 24.7585 98.0117 25.7983C96.1282 26.8381 94.0146 27.358 91.6708 27.358C89.3185 27.358 87.2006 26.8338 85.3171 25.7855C83.4336 24.7372 81.9379 23.2159 80.8299 21.2216C79.7305 19.2187 79.1808 16.7812 79.1808 13.9091C79.1808 11.0284 79.7305 8.58665 80.8299 6.58381C81.9379 4.58097 83.4336 3.05966 85.3171 2.01989C87.2006 0.980113 89.3185 0.460226 91.6708 0.460226C94.0146 0.460226 96.1282 0.980113 98.0117 2.01989C99.9038 3.05966 101.404 4.58097 102.512 6.58381C103.62 8.58665 104.174 11.0284 104.174 13.9091ZM97.7049 13.9091C97.7049 12.2045 97.462 10.7642 96.9762 9.58807C96.4989 8.41193 95.8086 7.52131 94.9052 6.91619C94.0103 6.31108 92.9322 6.00852 91.6708 6.00852C90.418 6.00852 89.3398 6.31108 88.4364 6.91619C87.533 7.52131 86.8384 8.41193 86.3526 9.58807C85.8754 10.7642 85.6367 12.2045 85.6367 13.9091C85.6367 15.6136 85.8754 17.054 86.3526 18.2301C86.8384 19.4062 87.533 20.2969 88.4364 20.902C89.3398 21.5071 90.418 21.8097 91.6708 21.8097C92.9322 21.8097 94.0103 21.5071 94.9052 20.902C95.8086 20.2969 96.4989 19.4062 96.9762 18.2301C97.462 17.054 97.7049 15.6136 97.7049 13.9091Z" fill="black"/>
</svg>
